<?xml version="1.0" standalone="no"?>
<!DOCTYPE svg PUBLIC "-//W3C//DTD SVG 20010904//EN"
 "http://www.w3.org/TR/2001/REC-SVG-20010904/DTD/svg10.dtd">
<svg version="1.0" xmlns="http://www.w3.org/2000/svg"
 width="500.000000pt" height="500.000000pt" viewBox="0 0 500.000000 500.000000"
 preserveAspectRatio="xMidYMid meet">

<g transform="translate(0.000000,500.000000) scale(0.100000,-0.100000)"
fill="#000000" stroke="none">
<path d="M521 2686 c-16 -20 -6 -52 19 -59 11 -3 30 3 43 13 18 15 20 22 11
37 -14 23 -57 28 -73 9z" fill="#fff"/>
<path d="M1600 2500 l0 -200 30 0 30 0 0 79 c0 115 17 151 71 151 43 0 49 -16
49 -127 l0 -103 35 0 35 0 0 104 c0 56 -5 117 -10 133 -19 53 -95 70 -143 33
-14 -11 -28 -20 -31 -20 -3 0 -6 34 -6 75 l0 75 -30 0 -30 0 0 -200z" fill="#fff"/>
<path d="M2440 2500 c0 -193 1 -200 20 -200 19 0 20 7 20 101 0 98 1 101 29
130 33 32 65 37 99 13 21 -14 22 -23 22 -130 0 -107 1 -114 20 -114 19 0 20 7
20 110 0 133 -12 166 -65 176 -45 8 -79 -1 -105 -28 l-20 -22 0 82 c0 75 -2
82 -20 82 -19 0 -20 -7 -20 -200z"/>
<path d="M3600 2625 c0 -41 -3 -75 -6 -75 -3 0 -17 9 -31 20 -67 53 -164 2
-178 -94 -9 -58 7 -119 40 -152 31 -31 101 -33 138 -4 14 11 28 20 31 20 3 0
6 -9 6 -20 0 -13 7 -20 20 -20 19 0 20 7 20 200 0 193 -1 200 -20 200 -18 0
-20 -7 -20 -75z m-56 -75 c62 -23 76 -150 22 -197 -58 -49 -134 -13 -143 68
-11 97 46 158 121 129z"/>
<path d="M4050 2500 c0 -193 1 -200 20 -200 18 0 20 7 20 65 0 36 3 65 8 65 4
0 31 -29 61 -65 39 -47 60 -65 78 -65 22 0 18 7 -41 77 l-64 77 54 60 c43 48
50 62 37 65 -11 2 -37 -17 -70 -53 -29 -31 -55 -56 -58 -56 -3 0 -5 52 -5 115
0 108 -1 115 -20 115 -19 0 -20 -7 -20 -200z"/>
<path d="M120 2490 l0 -193 104 5 c113 5 151 19 190 71 18 24 21 43 21 117 0
74 -3 93 -21 117 -39 52 -79 67 -191 71 l-103 4 0 -192z m223 90 c27 -30 29
-37 25 -97 -5 -87 -32 -115 -118 -121 l-60 -4 0 132 0 132 61 -4 c55 -4 65 -8
92 -38z" fill="#fff"/>
<path d="M2137 2658 c-56 -33 -80 -90 -75 -183 4 -82 20 -113 78 -152 65 -45
183 -21 212 42 9 20 9 28 -2 38 -10 9 -14 9 -18 -2 -10 -29 -50 -60 -85 -66
-50 -10 -107 19 -129 65 -22 43 -23 128 -4 175 32 77 136 98 197 39 21 -20 32
-25 40 -17 16 16 -5 49 -41 68 -43 22 -127 19 -173 -7z"/>
<path d="M777 2570 c-30 -24 -37 -25 -37 -5 0 10 -10 15 -30 15 l-30 0 0 -195
0 -195 30 0 30 0 0 70 c0 39 3 70 8 70 4 0 16 -7 26 -15 26 -20 90 -19 121 1
28 18 55 81 55 129 0 53 -28 114 -61 130 -39 21 -82 19 -112 -5z m82 -54 c16
-19 25 -79 17 -110 -9 -35 -47 -59 -81 -50 -52 13 -70 110 -28 156 19 22 76
24 92 4z" fill="#fff"/>
<path d="M1072 2574 c-43 -22 -66 -67 -66 -129 0 -95 49 -145 143 -145 39 0
56 6 81 27 l32 27 -22 18 c-22 18 -24 18 -42 1 -23 -21 -83 -22 -102 -2 -8 7
-17 24 -21 37 -6 22 -5 22 89 22 l96 0 0 45 c0 65 -39 106 -106 112 -33 2 -60
-2 -82 -13z m108 -54 c37 -37 26 -50 -40 -50 -53 0 -60 2 -60 19 0 22 35 51
62 51 10 0 27 -9 38 -20z" fill="#fff"/>
<path d="M1354 2571 c-37 -22 -46 -57 -28 -100 10 -24 23 -33 67 -46 65 -19
86 -37 67 -60 -17 -21 -63 -19 -92 5 -24 19 -26 19 -42 1 -24 -27 -20 -40 19
-57 66 -27 163 -10 179 31 21 55 -7 109 -61 121 -63 14 -78 21 -81 42 -5 30
42 41 79 19 25 -14 29 -14 43 2 22 24 20 28 -14 46 -40 21 -99 19 -136 -4z" fill="#fff"/>
<path d="M2805 2574 c-40 -21 -46 -27 -36 -42 6 -11 15 -9 42 7 42 26 81 27
102 3 33 -37 17 -56 -69 -77 -66 -17 -94 -43 -94 -87 0 -67 95 -104 152 -59
24 20 25 20 41 0 20 -23 57 -25 57 -4 0 8 -6 15 -14 15 -21 0 -26 23 -26 125
0 89 -1 95 -26 114 -32 25 -87 27 -129 5z m122 -165 c-8 -58 -32 -81 -80 -77
-46 3 -63 23 -54 60 8 30 57 53 121 57 16 1 18 -4 13 -40z"/>
<path d="M3155 2578 c-11 -6 -25 -19 -32 -27 -11 -14 -12 -13 -13 7 0 15 -6
22 -20 22 -19 0 -20 -7 -20 -140 0 -133 1 -140 20 -140 19 0 20 7 20 101 0 98
1 101 29 130 33 32 65 37 99 13 21 -14 22 -23 22 -130 0 -107 1 -114 20 -114
19 0 20 7 20 110 0 122 -12 163 -52 174 -35 9 -71 7 -93 -6z"/>
<path d="M3788 2574 c-75 -40 -86 -186 -18 -246 25 -23 40 -28 84 -28 56 0
106 26 106 56 0 20 -17 18 -47 -6 -32 -25 -84 -26 -112 -2 -22 17 -44 76 -33
86 3 3 50 6 104 6 l98 0 0 28 c0 39 -31 95 -60 109 -33 17 -89 16 -122 -3z
m117 -39 c14 -13 25 -33 25 -45 0 -18 -6 -20 -80 -20 -74 0 -80 2 -80 20 0 32
44 70 80 70 19 0 40 -9 55 -25z"/>
<path d="M4351 2577 c-27 -13 -49 -43 -39 -52 3 -3 21 3 39 14 41 25 82 27
103 5 32 -31 8 -64 -59 -78 -57 -13 -83 -28 -95 -55 -14 -35 -4 -77 23 -96 32
-22 100 -19 122 5 21 23 35 26 35 6 0 -15 21 -26 51 -26 25 0 25 26 -1 33 -18
5 -20 14 -20 96 0 49 -5 101 -11 114 -20 44 -96 61 -148 34z m101 -216 c-26
-36 -95 -42 -112 -11 -20 38 -5 68 43 81 23 6 51 14 62 19 17 6 20 3 23 -28 2
-23 -3 -44 -16 -61z"/>
<path d="M4695 2578 c-11 -6 -25 -19 -32 -27 -11 -14 -12 -13 -13 7 0 15 -6
22 -20 22 -19 0 -20 -7 -20 -140 0 -131 1 -140 19 -140 17 0 19 10 23 104 4
123 16 146 80 146 26 0 38 4 38 14 0 25 -42 33 -75 14z"/>
<path d="M520 2440 l0 -140 35 0 35 0 0 140 0 140 -35 0 -35 0 0 -140z" fill="#fff"/>
<path d="M4820 2365 c-21 -25 3 -67 37 -63 34 4 52 31 37 56 -15 23 -57 27
-74 7z" fill="red"/>
</g>
</svg>
